<svg width="1440" height="520" viewBox="0 0 1440 520" fill="none" xmlns="http://www.w3.org/2000/svg">
<g clip-path="url(#clip0)">
<g opacity="0.1">
<path d="M1268.47 -731.375C1002.86 -627.054 464.881 -523.767 437.782 -945.187C412.359 -1340.54 155.62 -1362.55 7.06351 -1319.12C-11.7204 -1313.63 -29.2495 -1304.87 -45.6488 -1294.19C-362.556 -1087.82 -715.018 -561.186 249.817 24.0138C1239.96 624.563 1174.78 -417.817 1018.42 -1014.08" stroke="black"/>
<path d="M1337.98 -704.082C1072.38 -599.761 534.397 -496.474 507.297 -917.895C481.874 -1313.25 225.135 -1335.26 76.5787 -1291.83C57.7948 -1286.34 40.2657 -1277.58 23.8663 -1266.9C-293.041 -1060.52 -645.503 -533.894 319.332 51.3063C1309.47 651.855 1244.29 -390.525 1087.94 -986.783" stroke="black"/>
<path d="M1407.5 -676.791C1141.9 -572.47 603.914 -469.183 576.814 -890.603C551.391 -1285.96 294.652 -1307.97 146.096 -1264.54C127.312 -1259.05 109.783 -1250.29 93.3834 -1239.61C-223.524 -1033.23 -575.986 -506.602 388.849 78.5978C1378.99 679.147 1313.81 -363.233 1157.45 -959.492" stroke="black"/>
<path d="M1477.01 -649.497C1211.41 -545.176 673.427 -441.889 646.328 -863.31C620.904 -1258.67 364.165 -1280.67 215.609 -1237.24C196.825 -1231.75 179.296 -1222.99 162.897 -1212.31C-154.011 -1005.94 -506.473 -479.309 458.362 105.891C1448.5 706.44 1383.32 -335.94 1226.97 -932.198" stroke="black"/>
<path d="M1546.53 -622.205C1280.92 -517.884 742.942 -414.597 715.843 -836.017C690.419 -1231.37 433.68 -1253.38 285.124 -1209.95C266.34 -1204.46 248.811 -1195.7 232.412 -1185.02C-84.4954 -978.646 -436.958 -452.016 527.878 133.184C1518.02 733.733 1452.84 -308.647 1296.48 -904.906" stroke="black"/>
<path d="M1616.04 -594.912C1350.44 -490.591 812.459 -387.304 785.36 -808.725C759.937 -1204.08 503.198 -1226.09 354.641 -1182.66C335.857 -1177.17 318.328 -1168.41 301.929 -1157.73C-14.9783 -951.353 -367.441 -424.724 597.395 160.476C1587.54 761.025 1522.36 -281.355 1366 -877.613" stroke="black"/>
<path d="M1685.56 -567.621C1419.96 -463.3 881.974 -360.013 854.874 -781.433C829.451 -1176.79 572.712 -1198.8 424.156 -1155.37C405.372 -1149.88 387.843 -1141.12 371.444 -1130.44C54.5364 -924.062 -297.926 -397.432 666.909 187.768C1657.05 788.317 1591.87 -254.063 1435.51 -850.322" stroke="black"/>
<path d="M1755.07 -540.328C1489.47 -436.007 951.489 -332.72 924.39 -754.141C898.966 -1149.5 642.227 -1171.51 493.671 -1128.07C474.887 -1122.58 457.358 -1113.83 440.959 -1103.15C124.052 -896.769 -228.411 -370.14 736.424 215.06C1726.57 815.609 1661.39 -226.771 1505.03 -823.029" stroke="black"/>
<path d="M1824.59 -513.035C1558.99 -408.714 1021 -305.427 993.905 -726.847C968.481 -1122.2 711.742 -1144.21 563.186 -1100.78C544.402 -1095.29 526.873 -1086.53 510.474 -1075.85C193.567 -869.476 -158.896 -342.846 805.94 242.354C1796.08 842.903 1730.9 -199.477 1574.54 -795.736" stroke="black"/>
<path d="M1894.1 -485.742C1628.5 -381.421 1090.52 -278.135 1063.42 -699.555C1038 -1094.91 781.258 -1116.92 632.701 -1073.49C613.917 -1068 596.388 -1059.24 579.989 -1048.56C263.082 -842.183 -89.3805 -315.554 875.455 269.646C1865.6 870.195 1800.42 -172.185 1644.06 -768.444" stroke="black"/>
<path d="M1963.62 -458.451C1698.02 -354.13 1160.03 -250.843 1132.93 -672.263C1107.51 -1067.62 850.772 -1089.63 702.216 -1046.2C683.432 -1040.71 665.903 -1031.95 649.504 -1021.27C332.596 -814.892 -19.8658 -288.262 944.969 296.938C1935.11 897.487 1869.93 -144.893 1713.57 -741.152" stroke="black"/>
<path d="M2033.14 -431.158C1767.53 -326.837 1229.55 -223.55 1202.45 -644.97C1177.03 -1040.33 920.29 -1062.34 771.733 -1018.9C752.95 -1013.41 735.42 -1004.66 719.021 -993.975C402.114 -787.599 49.6517 -260.969 1014.49 324.231C2004.63 924.78 1939.45 -117.6 1783.09 -713.859" stroke="black"/>
<path d="M2102.65 -403.865C1837.05 -299.544 1299.07 -196.258 1271.97 -617.678C1246.54 -1013.03 989.805 -1035.04 841.249 -991.611C822.465 -986.12 804.936 -977.363 788.536 -966.683C471.629 -760.306 119.167 -233.677 1084 351.523C2074.14 952.072 2008.96 -90.3078 1852.6 -686.567" stroke="black"/>
<path d="M2172.16 -376.572C1906.56 -272.251 1368.58 -168.965 1341.48 -590.385C1316.06 -985.741 1059.32 -1007.75 910.762 -964.318C891.978 -958.827 874.449 -950.07 858.049 -939.39C541.142 -733.013 188.68 -206.384 1153.52 378.816C2143.66 979.365 2078.48 -63.0149 1922.12 -659.274" stroke="black"/>
<path d="M2241.68 -349.28C1976.08 -244.959 1438.1 -141.673 1411 -563.093C1385.57 -958.449 1128.83 -980.458 980.278 -937.026C961.494 -931.535 943.965 -922.778 927.566 -912.098C610.659 -705.721 258.197 -179.092 1223.03 406.108C2213.17 1006.66 2147.99 -35.7229 1991.63 -631.982" stroke="black"/>
<path d="M2311.2 -321.988C2045.59 -217.667 1507.61 -114.38 1480.51 -535.8C1455.09 -931.156 1198.35 -953.165 1049.79 -909.734C1031.01 -904.242 1013.48 -895.485 997.082 -884.806C680.175 -678.429 327.712 -151.799 1292.55 433.401C2282.69 1033.95 2217.51 -8.4304 2061.15 -604.689" stroke="black"/>
<path d="M2380.71 -294.696C2115.11 -190.375 1577.13 -87.0881 1550.03 -508.508C1524.6 -903.864 1267.86 -925.873 1119.31 -882.442C1100.52 -876.95 1083 -868.193 1066.6 -857.514C749.689 -651.137 397.227 -124.507 1362.06 460.693C2352.2 1061.24 2287.02 18.8616 2130.66 -577.397" stroke="black"/>
<path d="M2450.23 -267.403C2184.62 -163.082 1646.64 -59.7952 1619.54 -481.215C1594.12 -876.571 1337.38 -898.58 1188.82 -855.149C1170.04 -849.657 1152.51 -840.9 1136.11 -830.221C819.205 -623.844 466.743 -97.2144 1431.58 487.986C2421.72 1088.53 2356.54 46.1546 2200.18 -550.104" stroke="black"/>
<path d="M2519.74 -240.11C2254.14 -135.789 1716.16 -32.5027 1689.06 -453.923C1663.63 -849.279 1406.9 -871.288 1258.34 -827.857C1239.55 -822.365 1222.03 -813.608 1205.63 -802.928C888.719 -596.552 536.257 -69.9219 1501.09 515.278C2491.23 1115.83 2426.05 73.447 2269.7 -522.812" stroke="black"/>
<path d="M2589.26 -212.818C2323.65 -108.497 1785.67 -5.21069 1758.57 -426.631C1733.15 -821.987 1476.41 -843.996 1327.85 -800.565C1309.07 -795.073 1291.54 -786.316 1275.14 -775.636C958.234 -569.26 605.772 -42.6299 1570.61 542.57C2560.75 1143.12 2495.57 100.739 2339.21 -495.52" stroke="black"/>
<path d="M2658.77 -185.525C2393.17 -81.2045 1855.19 22.0823 1828.09 -399.338C1802.66 -794.694 1545.93 -816.703 1397.37 -773.272C1378.59 -767.78 1361.06 -759.023 1344.66 -748.343C1027.75 -541.967 675.288 -15.3369 1640.12 569.863C2630.26 1170.41 2565.08 128.032 2408.73 -468.227" stroke="black"/>
</g>
</g>
<defs>
<clipPath id="clip0">
<rect width="1440" height="520" fill="white" transform="matrix(-1 0 0 1 1440 0)"/>
</clipPath>
</defs>
</svg>
