<svg xmlns="http://www.w3.org/2000/svg" viewBox="0 0 380 210.05"><defs><style>.cls-1{fill:#26ab5c;}.cls-2{fill:#ffe600;}</style></defs><g id="Layer_2" data-name="Layer 2"><g id="Layer_1_copy_2" data-name="Layer 1 copy 2"><rect class="cls-1" y="132.05" width="380" height="78"/><path class="cls-1" d="M87,119.05H11.91q.09-4.32.09-21.6V57q0-10.18-.09-25.33t0-29.63H55q0,3.69,0,14.45t0,31.56q0,6.22,0,18.87t0,17.12H69.17q5.53,0,9.79,0t8,0Z"/><path class="cls-1" d="M170,119.05H90.83q.08-2.88.13-22.51t0-43.15V26.94q0-15.09-.09-25.06l16,.05q12.1,0,22.14,0t22.39,0L169,1.88V34q-3.88,0-7.71,0t-11.25,0H130.91q.09,3,.09,7.27v7.73h17q4.69,0,9.47,0T167,49V71.05H131v8.42q0,5.1-.09,7.58Q134.8,87,141,87c4.12,0,7.29,0,9.53,0H170Z"/><path class="cls-1" d="M265,60.05c.06,3.21.07,7.83,0,13.89s0,11.23,0,15.54v30.57c-1.35.2-4.48.42-9.37.68s-9.23.38-13,.38a117.1,117.1,0,0,1-25.35-2.86,59.06,59.06,0,0,1-24.47-12.19,50.58,50.58,0,0,1-13.95-19.41,65,65,0,0,1-5-25.39A65.6,65.6,0,0,1,178,37.85,46.92,46.92,0,0,1,190.1,19.63,60.91,60.91,0,0,1,213.42,5.45q13.2-4.4,32.66-4.4h5.54l5.28,36h-6.11a45.07,45.07,0,0,0-9.19,1.4,34.3,34.3,0,0,0-10.31,4,29.07,29.07,0,0,0-9.36,9.7A25.67,25.67,0,0,0,218.81,65a52.19,52.19,0,0,0,1,10.67q.94,4.55,2.42,9.71a9.59,9.59,0,0,0,2.3,3.89A5.65,5.65,0,0,0,228,90.84V60.05Z"/><path class="cls-1" d="M368.26,60.64A92.7,92.7,0,0,1,364.89,86a49.67,49.67,0,0,1-11.51,20.7,42.87,42.87,0,0,1-15.88,11.2,55.72,55.72,0,0,1-39.42-.39A41.57,41.57,0,0,1,282,105.79a54,54,0,0,1-11.11-20.65,90.13,90.13,0,0,1-3.15-24.32A90.18,90.18,0,0,1,271,35.44a56.22,56.22,0,0,1,11.38-20.83A39.2,39.2,0,0,1,297.6,3.72a56.77,56.77,0,0,1,39.59-.31A46.07,46.07,0,0,1,353.65,14.7,48.15,48.15,0,0,1,364.8,34.78,92.55,92.55,0,0,1,368.26,60.64Zm-43.84,0q0-5.88-.49-12.71a86.68,86.68,0,0,0-1.71-12.45,11.3,11.3,0,0,0-1.77-3.72,3.11,3.11,0,0,0-2.55-1.18,3.43,3.43,0,0,0-2.69,1.14,10.45,10.45,0,0,0-1.8,3.94,50.8,50.8,0,0,0-1.68,11.22q-.53,7.71-.52,13.67,0,7.09.52,13.14c.36,4,.91,8.07,1.68,12.1a12,12,0,0,0,1.85,3.5,3.16,3.16,0,0,0,2.55,1.32,3.09,3.09,0,0,0,2.64-1.32,13.46,13.46,0,0,0,1.77-3.59,118,118,0,0,0,1.67-12Q324.42,67.61,324.42,60.69Z"/><path class="cls-2" d="M240,171.05c0,1.26,0,3.07,0,5.44s0,4.39,0,6.08v11.76c-.53.08-1.74.16-3.65.26s-3.58.15-5,.15a45.65,45.65,0,0,1-9.86-1.11,22.88,22.88,0,0,1-9.52-4.74,19.46,19.46,0,0,1-5.42-7.55,25.22,25.22,0,0,1-1.94-9.87,25.58,25.58,0,0,1,1.59-9.11,18.13,18.13,0,0,1,4.71-7.08,23.74,23.74,0,0,1,9.07-5.52,40.63,40.63,0,0,1,12.7-1.71h2.16l2,14h-2.61a19.1,19.1,0,0,0-3.72.55,14.48,14.48,0,0,0-4.19,1.57,11.73,11.73,0,0,0-3.79,3.8,9.81,9.81,0,0,0-1.26,5,19.8,19.8,0,0,0,.38,4.18c.26,1.19.59,2.45,1,3.8a3.58,3.58,0,0,0,.93,1.52,2.35,2.35,0,0,0,1.42.6v-12Z"/><path class="cls-2" d="M280.78,194.24l-17.27,1.68c-.12-1.47-.25-3.09-.41-4.88s-.32-3.45-.5-5h-4.83c-.14,1.51-.3,3.18-.48,5s-.32,3.46-.43,4.85l-17.09-1.86q1.3-5.48,4.93-21.68t5.5-24.33h20.18q2.06,8.63,5.62,24.74T280.78,194.24ZM261.71,176c-.25-1.72-.48-4.16-.7-7.3s-.42-5.55-.63-7.23l-.35,0q-.31,2.53-.69,7.33c-.25,3.2-.47,5.61-.66,7.25v.07h3.05Z"/><path class="cls-2" d="M331.88,195.48l-17.36,1.71-1.83-22.14h-.08q-.24,2.83-.69,6.4t-.83,8.6H299.25c-.34-4.32-.69-7.63-1.07-9.93a58.19,58.19,0,0,1-.7-6.07h-.36s-.35,5.08-.71,9.47-.59,8.43-.73,12.11L280,194.05q1.81-14.76,3.32-28.62t2.06-17l17.15-.71q.21,2.74,1.06,9.29c.56,4.35,1.61,12.05,1.61,12.05h-.45c.6-3.67,1.3-7.92,2.11-12.72s1.3-8.11,1.47-9.9l18.74.82q.38,2.24,1.51,16.59T331.88,195.48Z"/><path class="cls-2" d="M365,195.05H332.93q0-1.16.05-9t0-17.34V158q0-6.06,0-10.06l6.37,0H357c3.25,0,5.57,0,7,0v13c-1,0-2,0-3.05,0H349c0,.82,0,1.79,0,2.92v3.08h11c1.33,0,2.66,0,4,0v9H349V179c0,1.39,0,2.41,0,3.08,1.07,0,2.44,0,4.13,0H365Z"/><path class="cls-2" d="M48,181.19A10.92,10.92,0,0,1,45.9,188a17.42,17.42,0,0,1-5.59,4.64,25.22,25.22,0,0,1-8.2,2.44,65,65,0,0,1-9,.83c-2.62,0-4.57,0-5.85-.07l-3.43-.21-2.11-13.85a29.91,29.91,0,0,0,3.18.15l3.33.06a22.73,22.73,0,0,0,2.74-.16,17.14,17.14,0,0,0,2.35-.47,4,4,0,0,0,1.87-.83,1.72,1.72,0,0,0,.53-1.31,2.46,2.46,0,0,0-.76-1.6,10.83,10.83,0,0,0-1.81-1.56c-.89-.66-1.74-1.24-2.55-1.76a19,19,0,0,1-2.51-1.93,18.21,18.21,0,0,1-3.89-4.65A11.69,11.69,0,0,1,12.88,162a11.33,11.33,0,0,1,.58-3.58,9.48,9.48,0,0,1,1.78-3.13q2.91-3.62,9-5.65a44.63,44.63,0,0,1,14-2.08c2.56,0,4.21,0,5,0s1.52.05,2.3.12l1.9,13.78-1.92-.07c-.46,0-1.13,0-2,0-1.22.05-2.22.12-3,.21a25.09,25.09,0,0,0-2.76.53,6,6,0,0,0-1.7.68,1.39,1.39,0,0,0-.79,1.21,2.38,2.38,0,0,0,.72,1.67,8.32,8.32,0,0,0,1.88,1.42l2.58,1.67c.79.5,1.68,1.13,2.69,1.88A12.38,12.38,0,0,1,46.69,175,13.57,13.57,0,0,1,48,181.19Z"/><path class="cls-2" d="M69.31,196a21.67,21.67,0,0,1-8.09-1.51,16.45,16.45,0,0,1-6.47-4.71,21.73,21.73,0,0,1-4.46-8.3,38.86,38.86,0,0,1,.07-20,22.48,22.48,0,0,1,4.57-8.37,15.66,15.66,0,0,1,6.1-4.37,21.19,21.19,0,0,1,8.14-1.5,21.5,21.5,0,0,1,7.77,1.37,18.55,18.55,0,0,1,6.61,4.54,19.23,19.23,0,0,1,4.43,8,36.68,36.68,0,0,1,1.44,10.46A34.49,34.49,0,0,1,87.87,182a20.8,20.8,0,0,1-4.57,8.17A16.89,16.89,0,0,1,77,194.67,21,21,0,0,1,69.31,196Zm2.5-24.33c0-1.55-.07-3.24-.2-5.08a35.69,35.69,0,0,0-.69-5,4.56,4.56,0,0,0-.71-1.5,1.24,1.24,0,0,0-1-.47,1.38,1.38,0,0,0-1.08.45,4.22,4.22,0,0,0-.73,1.59,20.18,20.18,0,0,0-.67,4.55c-.14,2.1-.21,3.93-.21,5.5q0,2.85.21,5.31a45.63,45.63,0,0,0,.67,4.85,5.08,5.08,0,0,0,.74,1.42,1.27,1.27,0,0,0,1,.55,1.3,1.3,0,0,0,1-.53,4.94,4.94,0,0,0,.74-1.4,46,46,0,0,0,.67-4.87C71.73,175.36,71.81,173.59,71.81,171.69Zm1.88,20.48,10.89-8.7c.4.56,1.21,1.58,2.41,3.06s2.8,3.43,4.77,5.87l-9.11,8.31q-3.77-3.51-6.1-5.82C75,193.36,74,192.45,73.69,192.17Z"/><path class="cls-2" d="M129.8,148.05c0,4.27,0,7.43,0,9.5s0,4.11,0,6.15q0,3.93,0,7.47t0,5.43a23.76,23.76,0,0,1-1.52,8.79,14,14,0,0,1-4.13,5.94,21.57,21.57,0,0,1-6.2,3.52,21.8,21.8,0,0,1-7.06,1.05,21.13,21.13,0,0,1-8-1.34,19,19,0,0,1-5.67-3.44,13.57,13.57,0,0,1-4.1-6.14,28,28,0,0,1-1.18-8.7V148.05h17q0,5.63,0,9.21c0,2.39,0,4.46,0,6.19v12.24a16.12,16.12,0,0,0,.52,5.06c.35.89.86,1.33,1.51,1.33s1.2-.44,1.51-1.33a17.94,17.94,0,0,0,.46-5V163.45c0-1.71,0-3.68,0-5.9s0-5.4,0-9.5Z"/><path class="cls-2" d="M150.16,195.05H133v-25c0-3.09,0-6.54,0-10.37s0-7.71,0-11.64h17.16q0,5.23,0,11.13c0,3.93,0,7.71,0,11.34q0,6.39.06,12.95C150.18,187.85,150.19,191.71,150.16,195.05Z"/><path class="cls-2" d="M191.23,171.83a26.13,26.13,0,0,1-2,10.37,21.07,21.07,0,0,1-5.59,7.76,22.13,22.13,0,0,1-7,4,29.85,29.85,0,0,1-10.09,1.5q-3.42,0-8-.1c-3.08-.07-4.91-.12-5.5-.15q0-3.22,0-9.92t0-13.95q0-4.81,0-11.55t0-11.65c.68,0,2.36,0,5-.07s5.31-.07,7.91-.07a35.4,35.4,0,0,1,10.46,1.36,20.36,20.36,0,0,1,7.47,4,20.88,20.88,0,0,1,5.54,7.8A28.15,28.15,0,0,1,191.23,171.83Zm-17.9-1c0-1.92-.1-4.05-.31-6.41s-.54-3.76-1-4.21a3.31,3.31,0,0,0-1.14-.88,3.45,3.45,0,0,0-1.47-.31H169v24h.32a4.26,4.26,0,0,0,1.41-.27,2.56,2.56,0,0,0,1.17-.73,16.52,16.52,0,0,0,1.12-5.13Q173.33,173.62,173.33,170.86Z"/></g></g></svg>